<svg xmlns:xlink="http://www.w3.org/1999/xlink" xmlns="http://www.w3.org/2000/svg" version="1.2" viewBox="107.2982016 335.0528 808.96 333.824" style="max-height: 500px" width="808.96" height="333.824"><defs/><polygon points="600,583 599,584 571,584 570,585 554,585 553,586 544,586 543,587 536,587 535,588 526,588 525,589 518,589 517,590 509,590 508,591 502,591 501,592 496,592 495,593 491,593 490,594 484,594 483,595 479,595 478,596 472,596 471,597 468,597 467,598 464,598 463,599 459,599 458,600 453,600 452,601 448,601 447,602 445,602 444,603 440,603 439,604 437,604 436,605 432,605 431,606 428,606 427,607 424,607 423,608 421,608 420,609 418,609 417,610 413,610 412,611 410,611 409,612 406,612 405,613 403,613 402,614 400,614 399,615 397,615 396,616 393,616 392,617 389,617 388,618 386,618 385,619 383,619 382,620 380,620 379,621 376,621 375,622 374,622 373,623 371,623 370,624 368,624 367,625 364,625 363,626 361,626 360,627 357,627 356,628 354,628 353,629 351,629 350,630 349,630 348,631 346,631 345,632 342,632 341,633 338,633 337,634 334,634 332,636 333,637 333,639 334,640 334,641 336,643 336,645 337,646 337,647 346,656 347,656 351,660 352,660 353,661 354,661 355,662 359,662 360,661 361,661 362,660 364,660 365,659 367,659 368,658 369,658 370,657 371,657 372,656 374,656 375,655 377,655 378,654 380,654 381,653 383,653 384,652 386,652 387,651 389,651 390,650 391,650 392,649 394,649 395,648 397,648 398,647 401,647 402,646 404,646 405,645 407,645 408,644 410,644 411,643 413,643 414,642 417,642 418,641 419,641 420,640 423,640 424,639 426,639 427,638 430,638 431,637 433,637 434,636 437,636 438,635 441,635 442,634 444,634 445,633 447,633 448,632 452,632 453,631 456,631 457,630 460,630 461,629 464,629 465,628 469,628 470,627 472,627 473,626 476,626 477,625 482,625 483,624 487,624 488,623 491,623 492,622 495,622 496,621 503,621 504,620 507,620 508,619 513,619 514,618 519,618 520,617 525,617 526,616 531,616 532,615 538,615 539,614 546,614 547,613 555,613 556,612 565,612 566,611 576,611 577,610 591,610 592,609 615,609 616,608 671,608 672,609 685,609 686,610 695,610 696,611 703,611 704,612 709,612 710,613 713,613 714,612 715,612 715,610 714,609 714,607 713,606 713,605 712,604 712,603 711,602 711,601 710,600 710,599 708,597 708,596 707,596 706,595 706,594 705,593 704,593 701,590 700,590 698,588 696,588 695,587 690,587 689,586 672,586 671,585 656,585 655,584 624,584 623,583" fill="rgb(143,88,216)"/><polygon points="684,360" fill="rgb(143,88,216)"/><polygon points="259,341 258,342 257,342 255,344 254,344 248,350 248,351 247,352 247,353 245,355 245,356 244,357 244,358 243,359 243,360 241,362 241,363 240,364 240,365 239,366 239,367 237,369 237,370 236,371 236,372 235,373 235,374 233,376 233,377 232,378 232,379 230,381 230,382 229,383 229,384 228,385 228,386 226,388 226,389 225,390 225,391 224,392 224,393 222,395 222,396 221,397 221,398 219,400 219,401 218,402 218,403 217,404 217,405 216,406 216,407 214,409 214,410 213,411 213,412 211,414 211,415 210,416 210,417 209,418 209,419 208,420 208,421 207,422 207,423 205,425 205,426 204,427 204,428 202,430 202,431 201,432 201,433 200,434 200,435 199,436 199,437 197,439 197,440 196,441 196,442 195,443 195,444 193,446 193,447 192,448 192,449 191,450 191,451 190,452 190,453 189,454 189,455 188,456 188,457 186,459 186,460 184,462 184,463 183,464 183,465 182,466 182,467 181,468 181,469 180,470 180,471 179,472 179,473 177,475 177,476 176,477 176,479 175,480 175,481 174,482 174,483 172,485 172,487 170,489 170,490 169,491 169,492 168,493 168,495 167,496 167,497 165,499 165,500 164,501 164,502 163,503 163,504 162,505 162,506 160,508 160,509 159,510 158,510 157,511 155,511 154,512 152,512 151,513 150,513 149,514 148,514 147,515 144,515 143,516 142,516 141,517 139,517 138,518 136,518 135,519 133,519 132,520 128,520 127,521 124,521 123,522 119,522 118,523 115,523 114,524 113,524 113,526 112,527 113,528 113,535 114,535 115,536 115,537 116,538 116,539 117,539 118,540 118,541 121,544 122,544 123,545 123,546 124,546 129,551 130,551 132,553 133,553 135,555 135,556 134,557 134,558 133,559 133,561 131,563 131,565 130,566 130,567 129,568 129,569 128,570 128,571 127,572 127,573 126,574 126,575 125,576 125,577 124,578 124,580 123,581 123,582 121,584 121,585 120,586 120,588 118,590 118,591 117,592 117,593 116,594 116,595 115,596 115,597 113,599 113,600 112,601 112,608 113,609 113,611 114,612 114,613 115,613 116,614 116,615 117,615 118,616 118,617 119,617 122,620 123,620 125,622 126,622 127,623 128,623 129,624 130,624 131,625 135,625 136,626 139,626 140,625 140,623 142,621 142,620 143,619 143,617 145,615 145,614 146,613 146,611 148,609 148,607 149,606 149,605 150,604 150,602 151,601 151,600 152,599 152,598 153,597 153,595 154,594 154,593 155,592 155,590 156,589 156,588 157,587 157,586 158,585 158,584 159,583 159,581 160,580 160,579 161,578 161,577 162,576 162,575 163,574 163,573 164,572 164,570 165,569 165,568 166,567 166,566 167,565 167,564 168,563 168,562 169,561 169,560 170,559 170,557 172,555 172,554 173,553 173,552 174,551 174,550 175,549 175,548 176,547 176,546 177,545 177,544 178,543 178,542 182,538 183,538 185,536 187,536 188,535 189,535 190,534 192,534 193,533 194,533 195,532 197,532 198,531 199,531 200,530 202,530 203,529 205,529 206,528 207,528 208,527 210,527 211,526 213,526 214,525 215,525 216,524 218,524 219,523 221,523 222,522 225,522 226,521 227,521 228,520 230,520 231,519 232,520 232,527 231,528 231,535 230,536 230,546 229,547 229,559 228,560 228,567 227,568 227,579 226,580 226,591 225,592 225,633 226,634 226,636 228,638 228,639 236,647 237,647 240,650 241,650 242,651 244,651 245,652 250,652 251,653 255,653 256,652 256,611 257,610 257,595 258,594 258,582 259,581 259,569 260,568 260,560 261,559 261,549 262,548 262,540 263,539 263,532 264,531 264,523 265,522 265,517 266,516 266,514 267,513 267,512 268,511 269,511 270,510 273,510 274,509 279,509 280,508 283,508 284,507 287,507 288,508 288,511 287,512 287,515 286,516 286,519 285,520 285,524 284,525 284,529 283,530 283,533 282,534 282,538 281,539 281,543 280,544 280,551 279,552 279,555 278,556 278,565 277,566 277,571 276,572 276,577 275,578 275,586 276,587 276,589 277,590 277,591 282,596 283,596 286,599 287,599 292,604 293,604 295,606 297,606 298,607 307,607 307,606 309,604 309,602 310,601 310,600 311,599 311,597 312,596 312,595 314,593 314,592 315,591 315,590 316,589 316,588 317,587 317,586 318,585 318,584 319,583 319,582 320,581 320,580 321,579 321,578 322,577 322,576 323,575 323,574 325,572 325,571 327,569 327,568 328,567 328,566 329,565 329,564 330,563 330,562 332,560 332,559 333,558 333,557 335,555 335,554 336,553 336,552 338,550 338,549 339,548 339,547 341,545 341,544 342,543 342,542 343,541 343,540 344,539 344,538 346,536 346,535 347,534 347,533 348,532 348,531 350,529 350,528 351,527 351,526 353,524 353,523 354,522 354,521 356,519 356,518 357,517 357,516 359,514 359,512 361,510 361,509 363,507 363,506 365,504 365,503 366,502 366,501 367,500 367,499 369,497 369,496 370,495 370,494 371,493 371,492 373,490 373,489 375,487 375,486 376,485 376,484 377,483 377,482 379,480 379,479 381,477 381,476 382,475 382,474 383,473 383,472 386,469 386,468 387,467 387,466 389,464 389,463 391,461 391,460 393,458 393,457 395,455 395,454 396,453 396,452 399,449 399,448 401,446 401,445 403,443 403,442 406,439 406,438 407,437 407,436 410,433 410,432 412,430 412,429 414,427 414,426 416,424 416,423 421,418 421,417 424,414 424,409 423,408 423,407 422,406 422,405 411,394 410,394 408,392 404,392 403,393 402,393 401,394 400,394 400,395 395,400 395,401 393,403 393,404 392,405 392,406 390,408 390,409 389,410 389,411 387,413 387,414 385,416 385,417 384,418 384,419 381,422 381,423 380,424 380,425 379,426 379,427 377,429 377,430 376,431 376,432 374,434 374,435 373,436 373,437 372,438 372,439 371,440 371,441 368,444 368,446 366,448 366,449 365,450 365,451 364,452 364,453 363,454 363,455 362,456 361,456 361,458 360,459 360,460 358,462 358,463 357,464 357,465 355,467 355,468 353,470 353,471 352,472 352,473 350,475 350,476 349,477 349,479 347,481 347,482 345,484 345,485 344,486 344,487 342,489 342,490 341,491 341,492 340,493 340,494 339,495 339,496 337,498 337,499 336,500 336,501 335,502 335,503 333,505 333,506 332,507 332,508 330,510 330,511 329,512 329,513 328,514 328,515 327,516 327,517 325,519 325,521 323,523 323,524 322,525 322,526 321,527 321,528 320,529 320,530 319,531 319,532 318,533 318,534 317,535 316,535 316,536 315,537 315,538 314,539 313,538 313,532 314,531 314,526 315,525 315,523 316,522 316,520 317,519 317,515 318,514 318,510 319,509 319,505 320,504 320,501 321,500 321,498 322,497 322,494 323,493 323,490 324,489 324,485 325,484 325,480 326,479 326,477 327,476 327,472 328,471 328,468 329,467 329,464 330,463 330,462 331,461 331,459 332,458 332,456 333,455 333,454 334,453 334,451 335,450 335,447 334,446 334,445 333,445 332,444 332,443 329,440 328,440 324,436 323,436 319,432 318,432 315,429 314,429 312,427 311,427 310,428 310,429 308,431 308,432 307,433 307,434 306,435 306,437 305,438 305,439 304,440 304,442 303,443 303,447 302,448 302,450 301,451 301,454 300,455 300,459 299,460 299,463 298,464 298,466 297,467 297,471 296,472 296,474 295,475 295,476 293,478 285,478 284,479 274,479 273,480 272,480 271,479 271,475 272,474 272,468 273,467 273,456 274,455 274,448 275,447 275,440 276,439 276,432 277,431 277,426 278,425 278,419 279,418 279,411 280,410 280,404 281,403 281,397 282,396 282,391 283,390 283,386 284,385 284,381 285,380 285,378 286,377 286,375 287,374 287,371 288,370 288,364 287,363 287,361 286,360 286,359 279,352 278,352 275,349 274,349 273,348 272,348 269,345 268,345 267,344 266,344 264,342 263,342 262,341" fill="rgb(143,88,216)"/><polygon points="658,340 656,342 656,343 655,344 654,344 654,345 653,346 653,347 652,348 652,349 651,350 651,351 650,352 650,353 648,355 648,357 647,358 647,359 645,361 645,362 644,363 644,364 643,365 643,366 642,367 642,368 640,370 640,372 639,373 638,373 635,376 629,376 628,377 611,377 610,378 600,378 599,379 587,379 586,380 578,380 577,381 568,381 567,382 560,382 559,383 552,383 551,384 544,384 543,385 536,385 535,386 530,386 529,387 524,387 523,388 516,388 515,389 508,389 507,390 503,390 502,391 493,391 492,392 485,392 484,393 480,393 479,394 478,394 476,396 476,400 477,401 477,404 478,405 478,406 480,408 480,409 483,412 483,413 486,416 486,417 487,417 492,422 493,422 494,423 496,423 497,424 499,424 500,423 502,423 503,422 504,422 505,421 507,421 508,420 509,420 510,419 514,419 515,418 517,418 518,417 522,417 523,416 527,416 528,415 533,415 534,414 540,414 541,413 548,413 549,412 556,412 557,411 563,411 564,410 572,410 573,409 581,409 582,408 591,408 592,407 602,407 603,406 615,406 616,405 621,405 622,406 621,407 621,408 620,409 620,410 619,411 619,412 618,413 618,414 617,415 617,416 616,417 616,418 615,419 615,421 613,423 613,425 612,426 612,427 611,428 611,429 610,430 610,431 609,432 609,433 608,434 608,436 607,437 607,438 606,439 606,440 605,441 605,442 604,443 604,444 603,445 603,447 602,448 602,449 601,450 601,451 600,452 600,453 599,454 599,455 598,456 598,457 597,458 597,459 596,460 596,462 595,463 595,464 593,466 593,468 592,469 592,471 591,472 591,473 590,474 590,475 589,476 589,477 588,478 588,479 587,480 587,481 586,482 586,484 585,485 585,486 584,487 584,488 583,489 583,491 582,492 582,493 581,494 581,495 580,496 580,497 579,498 579,500 578,501 578,502 577,503 577,504 576,505 576,506 575,507 575,508 573,510 573,511 568,516 568,517 565,520 565,521 561,525 561,526 557,530 557,531 552,536 552,537 549,540 548,539 548,537 549,536 549,534 550,533 550,531 551,530 551,528 552,527 552,526 553,525 553,523 554,522 554,520 555,519 555,517 556,516 556,515 557,514 557,512 558,511 558,510 559,509 559,507 560,506 560,504 561,503 561,502 562,501 562,499 563,498 563,497 564,496 564,495 565,494 565,492 566,491 566,490 567,489 567,488 568,487 568,486 569,485 569,482 571,480 571,479 572,478 572,476 573,475 573,474 574,473 574,472 576,470 576,469 577,468 577,467 579,465 579,464 580,463 580,462 582,460 582,459 583,458 583,457 584,456 584,455 586,453 586,452 587,451 587,450 589,448 589,446 590,445 590,443 588,441 588,440 587,440 583,436 582,436 579,433 578,433 577,432 576,432 573,429 572,429 570,427 569,427 568,426 567,426 566,427 565,427 554,438 554,439 553,440 552,440 552,441 547,446 547,447 546,448 545,448 544,449 544,450 543,451 542,451 541,452 541,453 539,455 538,455 538,456 528,466 528,467 521,474 521,475 517,479 517,480 513,484 513,485 509,489 509,490 506,493 506,494 499,501 498,500 498,498 499,497 499,496 500,495 500,494 502,492 502,491 503,490 503,488 505,486 505,485 506,484 506,483 508,481 508,480 509,479 509,478 511,476 511,475 512,474 512,473 513,472 513,471 514,470 514,469 516,467 516,466 517,465 517,464 519,462 519,461 520,460 520,459 521,458 521,455 519,453 519,452 515,448 514,448 513,447 513,446 512,446 510,444 509,444 507,442 506,442 505,441 504,441 503,440 500,440 499,441 496,441 496,442 495,443 494,443 493,444 493,445 492,446 492,447 490,449 490,450 489,451 489,452 488,453 488,455 487,456 487,457 485,459 485,460 484,461 484,462 483,463 483,465 482,466 482,467 480,469 480,471 478,473 478,474 477,475 477,476 476,477 476,478 475,479 475,481 473,483 473,484 472,485 472,487 470,489 470,490 469,491 469,492 468,493 468,494 467,495 467,496 466,497 466,498 462,502 462,503 455,510 455,511 448,518 448,519 446,521 445,521 445,522 440,527 440,528 439,529 438,529 438,530 426,542 425,542 425,543 424,544 423,544 418,549 417,549 416,550 416,551 415,552 414,552 413,553 412,553 408,557 407,557 404,560 403,560 401,562 400,562 399,563 398,563 396,565 395,565 394,566 393,566 392,567 391,567 390,566 390,564 389,563 389,552 390,551 390,548 391,547 391,543 392,542 392,541 393,540 393,539 394,538 394,537 396,535 402,535 403,534 405,534 406,533 407,533 408,532 409,532 410,531 411,531 413,529 414,529 416,527 417,527 419,525 420,525 424,521 425,521 425,520 426,519 427,519 430,516 431,516 431,515 432,514 433,514 442,505 442,504 443,503 444,503 444,502 451,495 451,494 454,491 454,490 455,489 455,488 458,485 458,484 460,482 460,481 462,479 462,478 463,477 463,476 464,475 464,474 465,473 465,472 466,471 466,470 467,469 467,467 468,466 468,465 469,464 469,460 470,459 470,447 469,446 469,445 468,444 468,443 466,441 466,440 465,440 459,434 458,434 454,430 453,430 451,428 450,428 449,427 448,427 447,426 436,426 435,427 432,427 431,428 430,428 429,429 428,429 425,432 424,432 408,448 408,449 405,452 405,453 402,456 402,457 400,459 400,460 397,463 397,464 395,466 395,467 393,469 393,470 392,471 392,472 390,474 390,475 389,476 389,477 387,479 387,480 386,481 386,482 384,484 384,486 382,488 382,489 380,491 380,492 379,493 379,494 378,495 378,496 377,497 377,498 376,499 376,501 374,503 374,505 372,507 372,509 371,510 371,511 370,512 370,513 369,514 369,516 368,517 368,519 367,520 367,521 366,522 366,524 365,525 365,527 364,528 364,530 363,531 363,533 362,534 362,538 361,539 361,543 360,544 360,560 361,561 361,566 362,567 362,568 363,569 363,570 364,571 364,573 366,575 366,576 369,579 369,580 370,580 375,585 376,585 378,587 379,587 382,590 383,590 384,591 385,591 387,593 388,593 389,594 391,594 392,595 399,595 400,594 401,594 402,593 403,593 405,591 406,591 408,589 409,589 411,587 411,586 412,585 413,585 415,583 415,582 416,581 417,581 419,579 419,578 420,577 421,577 421,576 422,575 423,575 423,574 426,571 426,570 427,569 428,569 428,568 429,567 430,567 430,566 434,562 434,561 438,557 438,556 439,555 439,554 440,553 441,553 441,552 444,549 444,548 447,545 447,544 450,541 451,542 451,543 450,544 450,548 449,549 449,563 450,564 450,565 451,566 451,568 453,570 453,571 455,573 455,574 456,575 457,575 461,579 462,579 463,580 465,580 466,581 470,581 471,580 471,579 473,577 473,576 474,575 474,573 475,572 475,571 476,570 476,569 478,567 478,566 479,565 479,564 480,563 480,562 481,561 481,560 482,559 482,558 484,556 484,555 486,553 486,552 487,551 487,550 488,549 488,548 490,546 490,545 492,543 492,542 495,539 495,538 496,537 496,536 498,534 498,533 501,530 501,529 503,527 503,526 506,523 506,522 511,517 511,516 514,513 514,512 518,508 518,507 522,503 522,502 526,498 526,497 530,493 530,492 533,489 534,490 534,492 533,493 533,495 532,496 532,498 531,499 531,500 530,501 530,503 529,504 529,505 528,506 528,507 527,508 527,510 526,511 526,513 525,514 525,516 524,517 524,519 523,520 523,522 522,523 522,525 521,526 521,529 520,530 520,534 519,535 519,538 518,539 518,541 517,542 517,559 518,560 518,561 519,562 519,563 524,568 525,568 529,572 530,572 532,574 533,574 536,577 543,577 544,576 545,576 559,562 559,561 564,556 564,555 565,554 566,554 566,553 569,550 570,550 571,551 571,554 572,555 572,557 577,562 578,562 580,564 581,564 583,566 584,566 585,567 586,567 588,569 589,569 590,570 595,570 596,569 598,569 600,567 601,567 602,566 603,566 607,562 607,561 612,556 612,555 613,554 614,554 614,553 624,543 624,542 629,537 630,538 630,555 631,556 631,558 632,559 632,560 633,561 633,562 637,566 637,567 639,567 642,570 643,570 645,572 646,572 647,573 649,573 650,574 657,574 658,573 659,573 671,561 671,560 673,558 674,558 674,557 679,552 679,551 684,546 684,545 688,541 688,540 691,537 691,536 694,533 694,532 696,530 697,531 697,535 696,536 696,553 697,554 697,558 698,559 698,560 699,561 699,562 705,568 706,568 707,569 707,570 708,570 709,571 709,572 710,572 712,574 719,574 720,573 722,573 723,572 724,572 726,570 727,570 728,569 728,568 729,567 730,567 730,566 733,563 733,562 735,560 735,559 736,558 736,557 740,553 740,552 743,549 743,548 746,545 746,544 750,540 750,539 753,536 753,535 756,532 756,531 757,530 758,530 758,529 760,527 760,526 764,522 764,521 768,517 768,516 771,513 771,512 776,507 776,506 780,502 780,501 783,498 783,497 788,492 788,491 791,488 791,487 794,484 794,483 798,479 798,478 801,475 801,474 804,471 804,470 807,467 807,466 810,463 810,462 814,458 814,457 816,455 816,454 818,452 818,451 819,450 820,451 820,463 821,464 821,467 822,468 822,471 823,472 823,475 824,476 824,479 825,480 825,481 826,482 826,484 828,486 828,487 829,488 829,489 831,491 831,492 841,502 840,503 839,503 838,504 837,504 836,505 834,505 833,506 832,506 831,507 830,507 829,508 827,508 826,509 825,509 824,510 823,510 822,511 821,511 820,512 818,512 817,513 816,513 815,514 814,514 813,515 812,515 811,516 810,516 809,517 808,517 807,518 805,518 804,519 803,519 802,520 801,520 800,521 799,521 798,522 797,522 796,523 795,523 794,524 793,524 792,525 790,525 788,527 787,527 786,528 785,528 783,530 782,530 781,531 780,531 778,533 777,533 776,534 775,534 773,536 772,536 771,537 770,537 767,540 766,540 763,543 762,543 759,546 758,546 755,549 754,549 754,550 753,551 752,551 749,554 749,555 748,556 748,559 747,560 748,561 748,563 749,564 749,565 752,568 752,569 755,572 755,573 756,573 757,574 757,575 758,575 760,577 761,577 762,578 764,578 765,579 766,579 767,580 771,580 772,579 772,578 778,572 778,571 779,570 780,570 780,569 781,568 782,568 787,563 788,563 792,559 793,559 794,558 795,558 796,557 797,557 799,555 800,555 801,554 802,554 804,552 806,552 808,550 810,550 811,549 812,549 813,548 815,548 816,547 817,547 818,546 819,546 820,545 821,545 822,544 823,544 824,543 825,543 826,542 828,542 829,541 831,541 832,540 833,540 834,539 835,539 836,538 837,538 838,537 841,537 843,535 845,535 846,534 848,534 849,533 851,533 852,532 853,532 854,531 856,531 857,530 859,530 860,529 863,529 864,528 866,528 867,527 869,527 870,526 874,526 875,525 877,525 878,524 883,524 884,523 891,523 892,522 900,522 901,521 906,521 907,520 909,520 910,519 910,515 909,514 909,512 908,511 908,510 907,509 907,508 905,506 905,505 902,502 902,501 897,496 896,496 895,495 895,494 894,494 893,493 891,493 890,492 888,492 887,491 878,491 877,492 872,492 871,493 868,493 867,494 861,494 859,492 858,492 854,488 853,488 852,487 852,486 850,484 850,483 849,482 849,480 848,479 848,477 847,476 847,471 846,470 846,453 847,452 847,449 848,448 848,446 849,445 849,444 850,443 850,442 851,441 851,439 852,438 852,437 854,435 854,434 855,433 855,432 856,431 856,430 857,429 857,427 858,426 858,425 859,424 859,421 860,420 860,418 861,417 861,416 860,415 860,414 858,412 858,411 855,408 855,407 852,404 851,404 850,403 850,402 849,402 844,397 843,397 841,395 838,395 837,394 835,394 833,396 832,396 831,397 830,397 817,410 817,411 813,415 813,416 808,421 808,422 805,425 805,426 801,430 801,431 798,434 798,435 797,436 797,437 793,441 793,442 791,444 791,445 789,447 789,448 787,450 787,451 784,454 784,455 783,456 783,457 780,460 780,461 777,464 777,465 776,466 776,467 773,470 773,471 771,473 771,474 768,477 768,478 765,481 765,482 763,484 763,485 759,489 759,490 755,494 755,495 752,498 752,499 747,504 747,505 744,508 744,509 739,514 739,515 736,518 736,519 733,522 733,523 730,526 730,527 725,532 724,531 724,527 725,526 725,524 726,523 726,518 727,517 727,515 728,514 728,512 729,511 729,510 730,509 730,507 731,506 731,504 732,503 732,502 734,500 734,499 735,498 735,496 736,495 736,494 737,493 737,492 738,491 738,490 739,489 739,488 740,487 740,486 742,484 742,483 743,482 743,480 744,479 744,478 745,477 745,476 746,475 746,474 747,473 747,472 748,471 748,470 749,469 749,468 750,467 750,466 751,465 751,464 752,463 752,462 753,461 753,460 754,459 754,458 755,457 755,456 756,455 756,453 758,451 758,450 759,449 759,448 760,447 760,446 761,445 761,444 762,443 762,442 763,441 763,440 764,439 764,438 765,437 765,434 764,433 764,432 757,425 756,425 753,422 752,422 750,420 749,420 748,419 745,419 740,424 740,425 737,428 737,429 736,430 736,431 733,434 733,435 731,437 731,438 730,439 730,440 729,441 729,442 728,443 728,444 727,445 727,446 725,448 725,449 724,450 724,451 723,452 723,453 721,455 721,456 720,457 720,458 719,459 719,461 717,463 717,464 716,465 716,466 715,467 715,468 714,469 714,470 712,472 712,473 709,476 709,477 708,478 708,479 705,482 705,483 702,486 702,487 698,491 698,492 696,494 696,495 691,500 691,501 685,507 685,508 684,509 683,509 683,510 679,514 679,515 674,520 674,521 671,524 671,525 664,532 664,533 659,538 658,537 658,531 659,530 659,528 660,527 660,525 661,524 661,522 662,521 662,520 663,519 663,517 664,516 664,514 665,513 665,512 666,511 666,510 667,509 667,506 668,505 668,504 669,503 669,502 670,501 670,499 671,498 671,496 672,495 672,494 673,493 673,492 674,491 674,490 675,489 675,487 676,486 676,485 677,484 677,482 678,481 678,480 679,479 679,478 680,477 680,476 681,475 681,474 682,473 682,472 683,471 683,469 684,468 684,467 685,466 685,465 686,464 686,463 687,462 687,461 688,460 688,459 689,458 689,457 690,456 690,454 692,452 692,451 693,450 693,448 694,447 694,446 695,445 695,442 696,441 696,440 697,439 697,435 693,431 692,431 687,426 687,425 686,425 682,421 678,421 677,422 676,422 676,423 673,426 673,427 672,428 672,429 671,430 671,431 670,432 670,433 668,435 668,437 666,439 666,441 664,443 664,445 663,446 663,447 661,449 661,450 660,451 660,453 659,454 659,455 657,457 657,458 656,459 656,461 655,462 655,463 654,464 654,465 653,466 653,467 652,468 652,469 651,470 651,471 650,472 650,473 649,474 649,475 648,476 648,478 646,480 646,482 645,483 645,484 644,485 644,486 643,487 643,488 641,490 641,491 640,492 640,493 639,494 638,494 638,495 635,498 635,499 629,505 629,506 628,507 627,507 625,509 625,510 614,521 613,521 613,522 612,523 611,523 605,529 604,529 599,534 598,534 597,533 597,532 598,531 598,528 599,527 599,525 600,524 600,522 602,520 602,518 603,517 603,515 605,513 605,512 606,511 606,510 607,509 607,507 608,506 608,504 609,503 609,502 610,501 610,500 611,499 611,498 612,497 612,496 613,495 613,494 614,493 614,492 615,491 615,489 616,488 616,487 618,485 618,483 620,481 620,479 621,478 621,477 622,476 622,475 623,474 623,472 625,470 625,469 626,468 626,467 628,465 628,463 630,461 630,459 631,458 631,457 632,456 632,455 634,453 634,451 636,449 636,447 638,445 638,444 639,443 639,442 640,441 640,439 642,437 642,436 643,435 643,434 644,433 644,432 646,430 646,428 647,427 647,426 649,424 649,423 650,422 650,421 651,420 651,419 653,417 653,416 655,414 655,412 658,409 658,408 659,407 659,406 661,404 661,403 663,401 669,401 670,400 679,400 680,399 692,399 693,398 711,398 712,397 727,397 728,396 783,396 785,394 785,390 784,389 784,386 783,385 783,382 782,381 782,380 780,378 780,377 779,376 778,376 777,375 777,374 776,374 775,373 714,373 713,374 679,374 678,373 678,371 679,370 679,368 680,367 680,365 681,364 681,354 676,349 675,349 671,345 670,345 667,342 666,342 664,340" fill="rgb(143,88,216)"/></svg>